<svg width="160" height="160" viewBox="0 0 160 160" fill="none" xmlns="http://www.w3.org/2000/svg">
<g clip-path="url(#clip0_1_736)">
<path d="M160 0H0V160H160V0Z" fill="#131518"/>
<path d="M49.3 67.66L57.59 76.98C57.55 76.44 57.51 75.83 57.46 75.16C57.41 74.49 57.39 73.9 57.39 73.4V65.22H61.42V84.71H57.39V82.25L49.1 72.93M49.11 72.92C49.17 73.46 49.21 74.07 49.25 74.74C49.29 75.41 49.31 76.01 49.31 76.53V84.71H45.28V65.22H49.31V67.66" fill="white"/>
<path d="M90.84 72.2L94.4 68.28V65.22H98.54V69.03L93.25 74.88L98.71 80.88V84.71H94.57V81.66L90.84 77.55" fill="white"/>
<path d="M88.47 77.55L84.75 81.66V84.71H80.6V80.88L86.06 74.88L80.74 69.03V65.22H84.89V68.28L88.47 72.2" fill="white"/>
<path d="M77.35 84.71H64.58V65.22H77.21V68.94H68.73V73.36H75.42V76.55H68.73V80.95H77.35V84.7V84.71Z" fill="white"/>
<path d="M100.34 68.95V65.23H114.73V68.95H109.61V84.71H105.47V68.95H100.35H100.34Z" fill="white"/>
<path d="M111.92 81.98H114.73V84.72H111.92V81.98Z" fill="#C8A882"/>
<path d="M33.94 72.16L37.5 68.19V65.1H41.64V68.96L36.35 74.88L41.81 80.95V84.84H37.67V81.75L33.94 77.58" fill="#C8A882"/>
<path d="M126.04 77.55L122.32 81.66V84.71H118.17V80.88L123.63 74.88L118.31 69.03V65.22H122.46V68.28L126.04 72.2" fill="#C8A882"/>
<g opacity="0.7">
<path d="M37.44 93.14H34.47V87.51H37.44L38.2 88.27V92.38L37.44 93.14ZM35.04 88.05V92.6H37.19L37.62 92.17V88.48L37.19 88.05H35.04Z" fill="#7A9BAA"/>
<path d="M42.73 92.65V91.71H43.28V92.68L42.82 93.14H40.64L40.18 92.68V89.26L40.64 88.8H42.82L43.28 89.26V91.09H40.72V92.65H42.73ZM42.73 89.29H40.72V90.66H42.73V89.29Z" fill="#7A9BAA"/>
<path d="M47.8 92.66V92.11L45.23 90.08V89.25L45.69 88.79H47.83L48.29 89.25V90.16H47.75V89.27H45.78V89.82L48.36 91.84V92.67L47.9 93.13H45.65L45.19 92.67V91.9H45.73V92.65H47.81L47.8 92.66Z" fill="#7A9BAA"/>
<path d="M50.85 87.9H50.26V87.31H50.85V87.9ZM50.82 93.14H50.27V88.8H50.82V93.14Z" fill="#7A9BAA"/>
<path d="M52.88 93.49H53.42V94.28H55.47V92.94H53.25L52.79 92.48V89.25L53.25 88.79H55.08L55.51 89.21V88.79H56.02V94.31L55.56 94.77H53.33L52.87 94.31V93.48L52.88 93.49ZM53.35 89.32V92.45H55.48V89.75L55.02 89.33H53.35V89.32Z" fill="#7A9BAA"/>
<path d="M58.54 93.14H57.99V88.8H58.5V89.22L58.92 88.8H60.75L61.21 89.26V93.15H60.65V89.33H59L58.54 89.75V93.15V93.14Z" fill="#7A9BAA"/>
<path d="M63.77 87.9H63.18V87.31H63.77V87.9ZM63.74 93.14H63.19V88.8H63.74V93.14Z" fill="#7A9BAA"/>
<path d="M66.28 93.14H65.73V88.8H66.24V89.22L66.66 88.8H68.49L68.95 89.26V93.15H68.39V89.33H66.74L66.28 89.75V93.15V93.14Z" fill="#7A9BAA"/>
<path d="M70.99 93.49H71.53V94.28H73.58V92.94H71.36L70.9 92.48V89.25L71.36 88.79H73.19L73.62 89.21V88.79H74.13V94.31L73.67 94.77H71.44L70.98 94.31V93.48L70.99 93.49ZM71.46 89.32V92.45H73.59V89.75L73.13 89.33H71.46V89.32Z" fill="#7A9BAA"/>
<path d="M80.05 93.14H79.4L78.29 89.69V88.8H78.84V89.58L79.75 92.54L80.84 89.58V88.8H81.39V89.58L82.49 92.53L83.39 89.58V88.8H83.95V89.69L82.84 93.14H82.19L81.12 90.26L80.04 93.14H80.05Z" fill="#7A9BAA"/>
<path d="M86.11 93.14H85.56V87.17H86.11V89.21L86.53 88.8H88.33L88.79 89.26V93.15H88.23V89.33H86.59L86.12 89.76V93.15L86.11 93.14Z" fill="#7A9BAA"/>
<path d="M93.8 89.25V93.14H93.3V92.7L92.87 93.14H91.13L90.67 92.68V91.21L91.13 90.75H93.25V89.31H91.25V90.02H90.7V89.26L91.16 88.8H93.34L93.8 89.26V89.25ZM93.24 91.17H91.21V92.64H92.78L93.24 92.23V91.17Z" fill="#7A9BAA"/>
<path d="M97.65 93.14H96.33L95.87 92.68V89.3H95.25V88.8H95.87V87.96H96.42V88.8H97.54V89.3H96.42V92.62H97.64V93.14H97.65Z" fill="#7A9BAA"/>
<path d="M99.25 87.17H99.93V87.64L99.2 88.89H98.87L99.25 87.59V87.17Z" fill="#7A9BAA"/>
<path d="M103.66 92.66V92.11L101.09 90.08V89.25L101.55 88.79H103.69L104.15 89.25V90.16H103.61V89.27H101.64V89.82L104.22 91.84V92.67L103.76 93.13H101.51L101.05 92.67V91.9H101.59V92.65H103.67L103.66 92.66Z" fill="#7A9BAA"/>
<path d="M109.22 93.14H108.67V88.8H109.18V89.22L109.6 88.8H111.43L111.89 89.26V93.15H111.33V89.33H109.68L109.22 89.75V93.15V93.14Z" fill="#7A9BAA"/>
<path d="M116.41 92.65V91.71H116.96V92.68L116.5 93.14H114.32L113.86 92.68V89.26L114.32 88.8H116.5L116.96 89.26V91.09H114.4V92.65H116.41ZM116.41 89.29H114.4V90.66H116.41V89.29Z" fill="#7A9BAA"/>
<path d="M119.15 93.14H118.6V92.22L119.91 90.96L118.64 89.72V88.8H119.19V89.53L120.27 90.58L121.34 89.53V88.8H121.9V89.72L120.63 90.96L121.94 92.22V93.14H121.38V92.41L120.26 91.32L119.14 92.41V93.14H119.15Z" fill="#7A9BAA"/>
<path d="M125.53 93.14H124.21L123.75 92.68V89.3H123.13V88.8H123.75V87.96H124.3V88.8H125.42V89.3H124.3V92.62H125.52V93.14H125.53Z" fill="#7A9BAA"/>
</g>
</g>
<defs>
<clipPath id="clip0_1_736">
<rect width="160" height="160" fill="white"/>
</clipPath>
</defs>
</svg>
