<svg width="160" height="160" viewBox="0 0 160 160" fill="none" xmlns="http://www.w3.org/2000/svg">
<g clip-path="url(#clip0_1_1103)">
<path d="M160 0H0V160H160V0Z" fill="#131518"/>
<mask id="mask0_1_1103" style="mask-type:luminance" maskUnits="userSpaceOnUse" x="0" y="0" width="161" height="161">
<path d="M160.14 0H0V160.14H160.14V0Z" fill="white"/>
</mask>
<g mask="url(#mask0_1_1103)">
<path d="M11.95 -4.56999L15.5 -8.48999V-11.54H19.65V-7.72999L14.35 -1.87999L19.81 4.11001V7.95001H15.67V4.89001L11.95 0.780006" fill="#C8A882"/>
<path d="M10.15 0.780006L6.42999 4.89001V7.95001H2.28999V4.11001L7.74999 -1.87999L2.42999 -7.72999V-11.54H6.56999V-8.48999L10.15 -4.56999" fill="#C8A882"/>
<path d="M34.9 7.04001L38.46 3.12001V0.0700073H42.6V3.88001L37.31 9.73001L42.77 15.72V19.55H38.62V16.5L34.9 12.39" fill="#C8A882"/>
<path d="M33.11 12.39L29.38 16.5V19.55H25.24V15.72L30.7 9.73001L25.38 3.88001V0.0700073H29.52V3.12001L33.11 7.04001" fill="#C8A882"/>
<path d="M57.85 -4.56999L61.41 -8.48999V-11.54H65.55V-7.72999L60.26 -1.87999L65.72 4.11001V7.95001H61.58V4.89001L57.85 0.780006" fill="#C8A882"/>
<path d="M56.06 0.780006L52.34 4.89001V7.95001H48.19V4.11001L53.65 -1.87999L48.33 -7.72999V-11.54H52.48V-8.48999L56.06 -4.56999" fill="#C8A882"/>
<path d="M80.81 7.04001L84.37 3.12001V0.0700073H88.51V3.88001L83.22 9.73001L88.68 15.72V19.55H84.53V16.5L80.81 12.39" fill="#C8A882"/>
<path d="M79.02 12.39L75.29 16.5V19.55H71.15V15.72L76.61 9.73001L71.29 3.88001V0.0700073H75.43V3.12001L79.02 7.04001" fill="#C8A882"/>
<path d="M103.76 -4.56999L107.32 -8.48999V-11.54H111.46V-7.72999L106.17 -1.87999L111.63 4.11001V7.95001H107.49V4.89001L103.76 0.780006" fill="#C8A882"/>
<path d="M101.97 0.780006L98.25 4.89001V7.95001H94.1V4.11001L99.56 -1.87999L94.24 -7.72999V-11.54H98.39V-8.48999L101.97 -4.56999" fill="#C8A882"/>
<path d="M126.72 7.04001L130.27 3.12001V0.0700073H134.42V3.88001L129.12 9.73001L134.58 15.72V19.55H130.44V16.5L126.72 12.39" fill="#C8A882"/>
<path d="M124.92 12.39L121.2 16.5V19.55H117.06V15.72L122.52 9.73001L117.2 3.88001V0.0700073H121.34V3.12001L124.92 7.04001" fill="#C8A882"/>
<path d="M149.67 -4.56999L153.23 -8.48999V-11.54H157.37V-7.72999L152.08 -1.87999L157.54 4.11001V7.95001H153.4V4.89001L149.67 0.780006" fill="#C8A882"/>
<path d="M147.88 0.780006L144.15 4.89001V7.95001H140.01V4.11001L145.47 -1.87999L140.15 -7.72999V-11.54H144.29V-8.48999L147.88 -4.56999" fill="#C8A882"/>
<path d="M11.95 18.65L15.5 14.73V11.68H19.65V15.48L14.35 21.34L19.81 27.33V31.16H15.67V28.11L11.95 24" fill="#C8A882"/>
<path d="M10.15 24L6.42999 28.11V31.16H2.28999V27.33L7.74999 21.34L2.42999 15.48V11.68H6.56999V14.73L10.15 18.65" fill="#C8A882"/>
<path d="M34.9 30.26L38.46 26.34V23.29H42.6V27.09L37.31 32.95L42.77 38.94V42.77H38.62V39.72L34.9 35.61" fill="#C8A882"/>
<path d="M33.11 35.61L29.38 39.72V42.77H25.24V38.94L30.7 32.95L25.38 27.09V23.29H29.52V26.34L33.11 30.26" fill="#C8A882"/>
<path d="M57.85 18.65L61.41 14.73V11.68H65.55V15.48L60.26 21.34L65.72 27.33V31.16H61.58V28.11L57.85 24" fill="#C8A882"/>
<path d="M56.06 24L52.34 28.11V31.16H48.19V27.33L53.65 21.34L48.33 15.48V11.68H52.48V14.73L56.06 18.65" fill="#C8A882"/>
<path d="M80.81 30.26L84.37 26.34V23.29H88.51V27.09L83.22 32.95L88.68 38.94V42.77H84.53V39.72L80.81 35.61" fill="#C8A882"/>
<path d="M79.02 35.61L75.29 39.72V42.77H71.15V38.94L76.61 32.95L71.29 27.09V23.29H75.43V26.34L79.02 30.26" fill="#C8A882"/>
<path d="M103.76 18.65L107.32 14.73V11.68H111.46V15.48L106.17 21.34L111.63 27.33V31.16H107.49V28.11L103.76 24" fill="#C8A882"/>
<path d="M101.97 24L98.25 28.11V31.16H94.1V27.33L99.56 21.34L94.24 15.48V11.68H98.39V14.73L101.97 18.65" fill="#C8A882"/>
<path d="M126.72 30.26L130.27 26.34V23.29H134.42V27.09L129.12 32.95L134.58 38.94V42.77H130.44V39.72L126.72 35.61" fill="#C8A882"/>
<path d="M124.92 35.61L121.2 39.72V42.77H117.06V38.94L122.52 32.95L117.2 27.09V23.29H121.34V26.34L124.92 30.26" fill="#C8A882"/>
<path d="M149.67 18.65L153.23 14.73V11.68H157.37V15.48L152.08 21.34L157.54 27.33V31.16H153.4V28.11L149.67 24" fill="#C8A882"/>
<path d="M147.88 24L144.15 28.11V31.16H140.01V27.33L145.47 21.34L140.15 15.48V11.68H144.29V14.73L147.88 18.65" fill="#C8A882"/>
<path d="M11.95 41.87L15.5 37.95V34.9H19.65V38.7L14.35 44.56L19.81 50.55V54.38H15.67V51.33L11.95 47.22" fill="#C8A882"/>
<path d="M10.15 47.22L6.42999 51.33V54.38H2.28999V50.55L7.74999 44.56L2.42999 38.7V34.9H6.56999V37.95L10.15 41.87" fill="#C8A882"/>
<path d="M34.9 53.48L38.46 49.56V46.5H42.6V50.31L37.31 56.16L42.77 62.16V65.99H38.62V62.94L34.9 58.83" fill="#C8A882"/>
<path d="M33.11 58.83L29.38 62.94V65.99H25.24V62.16L30.7 56.16L25.38 50.31V46.5H29.52V49.56L33.11 53.48" fill="#C8A882"/>
<path d="M57.85 41.87L61.41 37.95V34.9H65.55V38.7L60.26 44.56L65.72 50.55V54.38H61.58V51.33L57.85 47.22" fill="#C8A882"/>
<path d="M56.06 47.22L52.34 51.33V54.38H48.19V50.55L53.65 44.56L48.33 38.7V34.9H52.48V37.95L56.06 41.87" fill="#C8A882"/>
<path d="M80.81 53.48L84.37 49.56V46.5H88.51V50.31L83.22 56.16L88.68 62.16V65.99H84.53V62.94L80.81 58.83" fill="#C8A882"/>
<path d="M79.02 58.83L75.29 62.94V65.99H71.15V62.16L76.61 56.16L71.29 50.31V46.5H75.43V49.56L79.02 53.48" fill="#C8A882"/>
<path d="M103.76 41.87L107.32 37.95V34.9H111.46V38.7L106.17 44.56L111.63 50.55V54.38H107.49V51.33L103.76 47.22" fill="#C8A882"/>
<path d="M101.97 47.22L98.25 51.33V54.38H94.1V50.55L99.56 44.56L94.24 38.7V34.9H98.39V37.95L101.97 41.87" fill="#C8A882"/>
<path d="M126.72 53.48L130.27 49.56V46.5H134.42V50.31L129.12 56.16L134.58 62.16V65.99H130.44V62.94L126.72 58.83" fill="#C8A882"/>
<path d="M124.92 58.83L121.2 62.94V65.99H117.06V62.16L122.52 56.16L117.2 50.31V46.5H121.34V49.56L124.92 53.48" fill="#C8A882"/>
<path d="M149.67 41.87L153.23 37.95V34.9H157.37V38.7L152.08 44.56L157.54 50.55V54.38H153.4V51.33L149.67 47.22" fill="#C8A882"/>
<path d="M147.88 47.22L144.15 51.33V54.38H140.01V50.55L145.47 44.56L140.15 38.7V34.9H144.29V37.95L147.88 41.87" fill="#C8A882"/>
<path d="M11.95 65.09L15.5 61.17V58.11H19.65V61.92L14.35 67.77L19.81 73.77V77.6H15.67V74.55L11.95 70.43" fill="#C8A882"/>
<path d="M10.15 70.43L6.42999 74.55V77.6H2.28999V73.77L7.74999 67.77L2.42999 61.92V58.11H6.56999V61.17L10.15 65.09" fill="#C8A882"/>
<path d="M34.9 76.7L38.46 72.78V69.72H42.6V73.53L37.31 79.38L42.77 85.38V89.21H38.62V86.16L34.9 82.04" fill="#C8A882"/>
<path d="M33.11 82.04L29.38 86.16V89.21H25.24V85.38L30.7 79.38L25.38 73.53V69.72H29.52V72.78L33.11 76.7" fill="#C8A882"/>
<path d="M57.85 65.09L61.41 61.17V58.11H65.55V61.92L60.26 67.77L65.72 73.77V77.6H61.58V74.55L57.85 70.43" fill="#C8A882"/>
<path d="M56.06 70.43L52.34 74.55V77.6H48.19V73.77L53.65 67.77L48.33 61.92V58.11H52.48V61.17L56.06 65.09" fill="#C8A882"/>
<path d="M80.81 76.7L84.37 72.78V69.72H88.51V73.53L83.22 79.38L88.68 85.38V89.21H84.53V86.16L80.81 82.04" fill="#C8A882"/>
<path d="M79.02 82.04L75.29 86.16V89.21H71.15V85.38L76.61 79.38L71.29 73.53V69.72H75.43V72.78L79.02 76.7" fill="#C8A882"/>
<path d="M103.76 65.09L107.32 61.17V58.11H111.46V61.92L106.17 67.77L111.63 73.77V77.6H107.49V74.55L103.76 70.43" fill="#C8A882"/>
<path d="M101.97 70.43L98.25 74.55V77.6H94.1V73.77L99.56 67.77L94.24 61.92V58.11H98.39V61.17L101.97 65.09" fill="#C8A882"/>
<path d="M126.72 76.7L130.27 72.78V69.72H134.42V73.53L129.12 79.38L134.58 85.38V89.21H130.44V86.16L126.72 82.04" fill="#C8A882"/>
<path d="M124.92 82.04L121.2 86.16V89.21H117.06V85.38L122.52 79.38L117.2 73.53V69.72H121.34V72.78L124.92 76.7" fill="#C8A882"/>
<path d="M149.67 65.09L153.23 61.17V58.11H157.37V61.92L152.08 67.77L157.54 73.77V77.6H153.4V74.55L149.67 70.43" fill="#C8A882"/>
<path d="M147.88 70.43L144.15 74.55V77.6H140.01V73.77L145.47 67.77L140.15 61.92V58.11H144.29V61.17L147.88 65.09" fill="#C8A882"/>
<path d="M11.95 88.31L15.5 84.39V81.33H19.65V85.14L14.35 90.99L19.81 96.99V100.82H15.67V97.77L11.95 93.65" fill="#C8A882"/>
<path d="M10.15 93.65L6.42999 97.77V100.82H2.28999V96.99L7.74999 90.99L2.42999 85.14V81.33H6.56999V84.39L10.15 88.31" fill="#C8A882"/>
<path d="M34.9 99.92L38.46 96V92.94H42.6V96.75L37.31 102.6L42.77 108.6V112.43H38.62V109.38L34.9 105.26" fill="#C8A882"/>
<path d="M33.11 105.26L29.38 109.38V112.43H25.24V108.6L30.7 102.6L25.38 96.75V92.94H29.52V96L33.11 99.92" fill="#C8A882"/>
<path d="M57.85 88.31L61.41 84.39V81.33H65.55V85.14L60.26 90.99L65.72 96.99V100.82H61.58V97.77L57.85 93.65" fill="#C8A882"/>
<path d="M56.06 93.65L52.34 97.77V100.82H48.19V96.99L53.65 90.99L48.33 85.14V81.33H52.48V84.39L56.06 88.31" fill="#C8A882"/>
<path d="M80.81 99.92L84.37 96V92.94H88.51V96.75L83.22 102.6L88.68 108.6V112.43H84.53V109.38L80.81 105.26" fill="#C8A882"/>
<path d="M79.02 105.26L75.29 109.38V112.43H71.15V108.6L76.61 102.6L71.29 96.75V92.94H75.43V96L79.02 99.92" fill="#C8A882"/>
<path d="M103.76 88.31L107.32 84.39V81.33H111.46V85.14L106.17 90.99L111.63 96.99V100.82H107.49V97.77L103.76 93.65" fill="#C8A882"/>
<path d="M101.97 93.65L98.25 97.77V100.82H94.1V96.99L99.56 90.99L94.24 85.14V81.33H98.39V84.39L101.97 88.31" fill="#C8A882"/>
<path d="M126.72 99.92L130.27 96V92.94H134.42V96.75L129.12 102.6L134.58 108.6V112.43H130.44V109.38L126.72 105.26" fill="#C8A882"/>
<path d="M124.92 105.26L121.2 109.38V112.43H117.06V108.6L122.52 102.6L117.2 96.75V92.94H121.34V96L124.92 99.92" fill="#C8A882"/>
<path d="M149.67 88.31L153.23 84.39V81.33H157.37V85.14L152.08 90.99L157.54 96.99V100.82H153.4V97.77L149.67 93.65" fill="#C8A882"/>
<path d="M147.88 93.65L144.15 97.77V100.82H140.01V96.99L145.47 90.99L140.15 85.14V81.33H144.29V84.39L147.88 88.31" fill="#C8A882"/>
<path d="M11.95 111.53L15.5 107.61V104.55H19.65V108.36L14.35 114.21L19.81 120.2V124.04H15.67V120.99L11.95 116.87" fill="#C8A882"/>
<path d="M10.15 116.87L6.42999 120.99V124.04H2.28999V120.2L7.74999 114.21L2.42999 108.36V104.55H6.56999V107.61L10.15 111.53" fill="#C8A882"/>
<path d="M34.9 123.13L38.46 119.21V116.16H42.6V119.97L37.31 125.82L42.77 131.81V135.65H38.62V132.6L34.9 128.48" fill="#C8A882"/>
<path d="M33.11 128.48L29.38 132.6V135.65H25.24V131.81L30.7 125.82L25.38 119.97V116.16H29.52V119.21L33.11 123.13" fill="#C8A882"/>
<path d="M57.85 111.53L61.41 107.61V104.55H65.55V108.36L60.26 114.21L65.72 120.2V124.04H61.58V120.99L57.85 116.87" fill="#C8A882"/>
<path d="M56.06 116.87L52.34 120.99V124.04H48.19V120.2L53.65 114.21L48.33 108.36V104.55H52.48V107.61L56.06 111.53" fill="#C8A882"/>
<path d="M80.81 123.13L84.37 119.21V116.16H88.51V119.97L83.22 125.82L88.68 131.81V135.65H84.53V132.6L80.81 128.48" fill="#C8A882"/>
<path d="M79.02 128.48L75.29 132.6V135.65H71.15V131.81L76.61 125.82L71.29 119.97V116.16H75.43V119.21L79.02 123.13" fill="#C8A882"/>
<path d="M103.76 111.53L107.32 107.61V104.55H111.46V108.36L106.17 114.21L111.63 120.2V124.04H107.49V120.99L103.76 116.87" fill="#C8A882"/>
<path d="M101.97 116.87L98.25 120.99V124.04H94.1V120.2L99.56 114.21L94.24 108.36V104.55H98.39V107.61L101.97 111.53" fill="#C8A882"/>
<path d="M126.72 123.13L130.27 119.21V116.16H134.42V119.97L129.12 125.82L134.58 131.81V135.65H130.44V132.6L126.72 128.48" fill="#C8A882"/>
<path d="M124.92 128.48L121.2 132.6V135.65H117.06V131.81L122.52 125.82L117.2 119.97V116.16H121.34V119.21L124.92 123.13" fill="#C8A882"/>
<path d="M149.67 111.53L153.23 107.61V104.55H157.37V108.36L152.08 114.21L157.54 120.2V124.04H153.4V120.99L149.67 116.87" fill="#C8A882"/>
<path d="M147.88 116.87L144.15 120.99V124.04H140.01V120.2L145.47 114.21L140.15 108.36V104.55H144.29V107.61L147.88 111.53" fill="#C8A882"/>
<path d="M11.95 134.74L15.5 130.82V127.77H19.65V131.58L14.35 137.43L19.81 143.42V147.26H15.67V144.21L11.95 140.09" fill="#C8A882"/>
<path d="M10.15 140.09L6.42999 144.21V147.26H2.28999V143.42L7.74999 137.43L2.42999 131.58V127.77H6.56999V130.82L10.15 134.74" fill="#C8A882"/>
<path d="M34.9 146.35L38.46 142.43V139.38H42.6V143.19L37.31 149.04L42.77 155.03V158.87H38.62V155.82L34.9 151.7" fill="#C8A882"/>
<path d="M33.11 151.7L29.38 155.82V158.87H25.24V155.03L30.7 149.04L25.38 143.19V139.38H29.52V142.43L33.11 146.35" fill="#C8A882"/>
<path d="M57.85 134.74L61.41 130.82V127.77H65.55V131.58L60.26 137.43L65.72 143.42V147.26H61.58V144.21L57.85 140.09" fill="#C8A882"/>
<path d="M56.06 140.09L52.34 144.21V147.26H48.19V143.42L53.65 137.43L48.33 131.58V127.77H52.48V130.82L56.06 134.74" fill="#C8A882"/>
<path d="M80.81 146.35L84.37 142.43V139.38H88.51V143.19L83.22 149.04L88.68 155.03V158.87H84.53V155.82L80.81 151.7" fill="#C8A882"/>
<path d="M79.02 151.7L75.29 155.82V158.87H71.15V155.03L76.61 149.04L71.29 143.19V139.38H75.43V142.43L79.02 146.35" fill="#C8A882"/>
<path d="M103.76 134.74L107.32 130.82V127.77H111.46V131.58L106.17 137.43L111.63 143.42V147.26H107.49V144.21L103.76 140.09" fill="#C8A882"/>
<path d="M101.97 140.09L98.25 144.21V147.26H94.1V143.42L99.56 137.43L94.24 131.58V127.77H98.39V130.82L101.97 134.74" fill="#C8A882"/>
<path d="M126.72 146.35L130.27 142.43V139.38H134.42V143.19L129.12 149.04L134.58 155.03V158.87H130.44V155.82L126.72 151.7" fill="#C8A882"/>
<path d="M124.92 151.7L121.2 155.82V158.87H117.06V155.03L122.52 149.04L117.2 143.19V139.38H121.34V142.43L124.92 146.35" fill="#C8A882"/>
<path d="M149.67 134.74L153.23 130.82V127.77H157.37V131.58L152.08 137.43L157.54 143.42V147.26H153.4V144.21L149.67 140.09" fill="#C8A882"/>
<path d="M147.88 140.09L144.15 144.21V147.26H140.01V143.42L145.47 137.43L140.15 131.58V127.77H144.29V130.82L147.88 134.74" fill="#C8A882"/>
<path d="M11.95 157.96L15.5 154.04V150.99H19.65V154.8L14.35 160.65L19.81 166.64V170.48H15.67V167.43L11.95 163.31" fill="#C8A882"/>
<path d="M10.15 163.31L6.42999 167.43V170.48H2.28999V166.64L7.74999 160.65L2.42999 154.8V150.99H6.56999V154.04L10.15 157.96" fill="#C8A882"/>
<path d="M57.85 157.96L61.41 154.04V150.99H65.55V154.8L60.26 160.65L65.72 166.64V170.48H61.58V167.43L57.85 163.31" fill="#C8A882"/>
<path d="M56.06 163.31L52.34 167.43V170.48H48.19V166.64L53.65 160.65L48.33 154.8V150.99H52.48V154.04L56.06 157.96" fill="#C8A882"/>
<path d="M103.76 157.96L107.32 154.04V150.99H111.46V154.8L106.17 160.65L111.63 166.64V170.48H107.49V167.43L103.76 163.31" fill="#C8A882"/>
<path d="M101.97 163.31L98.25 167.43V170.48H94.1V166.64L99.56 160.65L94.24 154.8V150.99H98.39V154.04L101.97 157.96" fill="#C8A882"/>
<path d="M149.67 157.96L153.23 154.04V150.99H157.37V154.8L152.08 160.65L157.54 166.64V170.48H153.4V167.43L149.67 163.31" fill="#C8A882"/>
<path d="M147.88 163.31L144.15 167.43V170.48H140.01V166.64L145.47 160.65L140.15 154.8V150.99H144.29V154.04L147.88 157.96" fill="#C8A882"/>
</g>
</g>
<defs>
<clipPath id="clip0_1_1103">
<rect width="160" height="160" fill="white"/>
</clipPath>
</defs>
</svg>
